<mxfile host="Electron" modified="2024-02-12T08:54:45.457Z" agent="Mozilla/5.0 (Windows NT 10.0; Win64; x64) AppleWebKit/537.36 (KHTML, like Gecko) draw.io/23.0.2 Chrome/120.0.6099.109 Electron/28.1.0 Safari/537.36" etag="H4PzqFHPyWPWYBsiGgod" version="23.0.2" type="device">
  <diagram name="第 1 页" id="00zpdEyGkZuQAE-F2wmC">
    <mxGraphModel dx="611" dy="412" grid="1" gridSize="10" guides="1" tooltips="1" connect="1" arrows="1" fold="1" page="1" pageScale="1" pageWidth="827" pageHeight="1169" math="0" shadow="0">
      <root>
        <mxCell id="0" />
        <mxCell id="1" parent="0" />
        <mxCell id="qYG14PwdEQXjrHowDUsH-23" value="" style="rounded=0;whiteSpace=wrap;html=1;container=0;" vertex="1" parent="1">
          <mxGeometry x="160" y="260" width="230" height="80" as="geometry" />
        </mxCell>
        <mxCell id="qYG14PwdEQXjrHowDUsH-1" value="0" style="rounded=0;whiteSpace=wrap;html=1;fillColor=#f8cecc;strokeColor=#b85450;container=0;" vertex="1" parent="1">
          <mxGeometry x="170" y="290" width="50" height="20" as="geometry" />
        </mxCell>
        <mxCell id="qYG14PwdEQXjrHowDUsH-4" value="unused" style="rounded=0;whiteSpace=wrap;html=1;fillColor=#dae8fc;strokeColor=#6c8ebf;container=0;" vertex="1" parent="1">
          <mxGeometry x="250" y="290" width="50" height="20" as="geometry" />
        </mxCell>
        <mxCell id="qYG14PwdEQXjrHowDUsH-8" style="edgeStyle=orthogonalEdgeStyle;rounded=0;orthogonalLoop=1;jettySize=auto;html=1;entryX=0;entryY=0.5;entryDx=0;entryDy=0;" edge="1" parent="1" source="qYG14PwdEQXjrHowDUsH-1" target="qYG14PwdEQXjrHowDUsH-4">
          <mxGeometry relative="1" as="geometry" />
        </mxCell>
        <mxCell id="qYG14PwdEQXjrHowDUsH-5" value="unused" style="rounded=0;whiteSpace=wrap;html=1;fillColor=#dae8fc;strokeColor=#6c8ebf;container=0;" vertex="1" parent="1">
          <mxGeometry x="300" y="290" width="50" height="20" as="geometry" />
        </mxCell>
        <mxCell id="qYG14PwdEQXjrHowDUsH-10" value="buckets" style="text;html=1;align=center;verticalAlign=middle;resizable=0;points=[];autosize=1;strokeColor=none;fillColor=none;container=0;" vertex="1" parent="1">
          <mxGeometry x="270" y="267" width="60" height="30" as="geometry" />
        </mxCell>
        <mxCell id="qYG14PwdEQXjrHowDUsH-11" value="directory" style="text;html=1;align=center;verticalAlign=middle;resizable=0;points=[];autosize=1;strokeColor=none;fillColor=none;container=0;" vertex="1" parent="1">
          <mxGeometry x="160" y="267" width="70" height="30" as="geometry" />
        </mxCell>
        <mxCell id="qYG14PwdEQXjrHowDUsH-33" value="&lt;b&gt;global_depth = 0&lt;/b&gt;" style="text;html=1;align=center;verticalAlign=middle;resizable=0;points=[];autosize=1;strokeColor=none;fillColor=none;container=0;" vertex="1" parent="1">
          <mxGeometry x="160" y="310" width="120" height="30" as="geometry" />
        </mxCell>
        <mxCell id="qYG14PwdEQXjrHowDUsH-44" style="edgeStyle=orthogonalEdgeStyle;rounded=0;orthogonalLoop=1;jettySize=auto;html=1;entryX=0.5;entryY=0;entryDx=0;entryDy=0;" edge="1" parent="1" source="qYG14PwdEQXjrHowDUsH-25" target="qYG14PwdEQXjrHowDUsH-36">
          <mxGeometry relative="1" as="geometry" />
        </mxCell>
        <mxCell id="qYG14PwdEQXjrHowDUsH-45" value="Insert(2, &quot;b&quot;)" style="edgeLabel;html=1;align=center;verticalAlign=middle;resizable=0;points=[];container=0;" vertex="1" connectable="0" parent="qYG14PwdEQXjrHowDUsH-44">
          <mxGeometry x="-0.3367" y="1" relative="1" as="geometry">
            <mxPoint x="-1" y="5" as="offset" />
          </mxGeometry>
        </mxCell>
        <mxCell id="qYG14PwdEQXjrHowDUsH-25" value="" style="rounded=0;whiteSpace=wrap;html=1;container=0;" vertex="1" parent="1">
          <mxGeometry x="160" y="430" width="230" height="100" as="geometry" />
        </mxCell>
        <mxCell id="qYG14PwdEQXjrHowDUsH-26" style="edgeStyle=orthogonalEdgeStyle;rounded=0;orthogonalLoop=1;jettySize=auto;html=1;entryX=0.5;entryY=0;entryDx=0;entryDy=0;" edge="1" parent="1" source="qYG14PwdEQXjrHowDUsH-23" target="qYG14PwdEQXjrHowDUsH-25">
          <mxGeometry relative="1" as="geometry" />
        </mxCell>
        <mxCell id="qYG14PwdEQXjrHowDUsH-30" value="Insert(1, &quot;a&quot;)" style="edgeLabel;html=1;align=center;verticalAlign=middle;resizable=0;points=[];container=0;" vertex="1" connectable="0" parent="qYG14PwdEQXjrHowDUsH-26">
          <mxGeometry x="-0.3611" y="-1" relative="1" as="geometry">
            <mxPoint x="1" y="11" as="offset" />
          </mxGeometry>
        </mxCell>
        <mxCell id="qYG14PwdEQXjrHowDUsH-13" value="0" style="rounded=0;whiteSpace=wrap;html=1;fillColor=#f8cecc;strokeColor=#b85450;container=0;" vertex="1" parent="1">
          <mxGeometry x="170" y="485" width="50" height="20" as="geometry" />
        </mxCell>
        <mxCell id="qYG14PwdEQXjrHowDUsH-16" value="1, a" style="rounded=0;whiteSpace=wrap;html=1;fillColor=#d5e8d4;strokeColor=#82b366;container=0;" vertex="1" parent="1">
          <mxGeometry x="250" y="485" width="50" height="20" as="geometry" />
        </mxCell>
        <mxCell id="qYG14PwdEQXjrHowDUsH-12" style="edgeStyle=orthogonalEdgeStyle;rounded=0;orthogonalLoop=1;jettySize=auto;html=1;entryX=0;entryY=0.5;entryDx=0;entryDy=0;" edge="1" parent="1" source="qYG14PwdEQXjrHowDUsH-13" target="qYG14PwdEQXjrHowDUsH-16">
          <mxGeometry relative="1" as="geometry" />
        </mxCell>
        <mxCell id="qYG14PwdEQXjrHowDUsH-17" value="unused" style="rounded=0;whiteSpace=wrap;html=1;fillColor=#dae8fc;strokeColor=#6c8ebf;container=0;" vertex="1" parent="1">
          <mxGeometry x="300" y="485" width="50" height="20" as="geometry" />
        </mxCell>
        <mxCell id="qYG14PwdEQXjrHowDUsH-20" value="buckets" style="text;html=1;align=center;verticalAlign=middle;resizable=0;points=[];autosize=1;strokeColor=none;fillColor=none;container=0;" vertex="1" parent="1">
          <mxGeometry x="270" y="463" width="60" height="30" as="geometry" />
        </mxCell>
        <mxCell id="qYG14PwdEQXjrHowDUsH-21" value="directory" style="text;html=1;align=center;verticalAlign=middle;resizable=0;points=[];autosize=1;strokeColor=none;fillColor=none;container=0;" vertex="1" parent="1">
          <mxGeometry x="160" y="462" width="70" height="30" as="geometry" />
        </mxCell>
        <mxCell id="qYG14PwdEQXjrHowDUsH-31" value="hash(1) = 1, IndexOf(1) = 0" style="text;html=1;align=center;verticalAlign=middle;resizable=0;points=[];autosize=1;strokeColor=none;fillColor=none;container=0;" vertex="1" parent="1">
          <mxGeometry x="175" y="435" width="170" height="30" as="geometry" />
        </mxCell>
        <mxCell id="qYG14PwdEQXjrHowDUsH-46" value="&lt;b&gt;global_depth = 0&lt;/b&gt;" style="text;html=1;align=center;verticalAlign=middle;resizable=0;points=[];autosize=1;strokeColor=none;fillColor=none;container=0;" vertex="1" parent="1">
          <mxGeometry x="160" y="503" width="120" height="30" as="geometry" />
        </mxCell>
        <mxCell id="qYG14PwdEQXjrHowDUsH-59" style="edgeStyle=orthogonalEdgeStyle;rounded=0;orthogonalLoop=1;jettySize=auto;html=1;entryX=0;entryY=0.5;entryDx=0;entryDy=0;" edge="1" parent="1" source="qYG14PwdEQXjrHowDUsH-36" target="qYG14PwdEQXjrHowDUsH-50">
          <mxGeometry relative="1" as="geometry" />
        </mxCell>
        <mxCell id="qYG14PwdEQXjrHowDUsH-70" value="Insert(3, &quot;c&quot;)" style="edgeLabel;html=1;align=center;verticalAlign=middle;resizable=0;points=[];" vertex="1" connectable="0" parent="qYG14PwdEQXjrHowDUsH-59">
          <mxGeometry x="-0.0018" y="-2" relative="1" as="geometry">
            <mxPoint x="-4" as="offset" />
          </mxGeometry>
        </mxCell>
        <mxCell id="qYG14PwdEQXjrHowDUsH-260" style="edgeStyle=orthogonalEdgeStyle;rounded=0;orthogonalLoop=1;jettySize=auto;html=1;entryX=0.5;entryY=0;entryDx=0;entryDy=0;" edge="1" parent="1" source="qYG14PwdEQXjrHowDUsH-50" target="qYG14PwdEQXjrHowDUsH-143">
          <mxGeometry relative="1" as="geometry">
            <Array as="points">
              <mxPoint x="585" y="780" />
              <mxPoint x="273" y="780" />
            </Array>
          </mxGeometry>
        </mxCell>
        <mxCell id="qYG14PwdEQXjrHowDUsH-261" value="Insert(4, &quot;d&quot;)" style="edgeLabel;html=1;align=center;verticalAlign=middle;resizable=0;points=[];" vertex="1" connectable="0" parent="qYG14PwdEQXjrHowDUsH-260">
          <mxGeometry x="0.4316" relative="1" as="geometry">
            <mxPoint as="offset" />
          </mxGeometry>
        </mxCell>
        <mxCell id="qYG14PwdEQXjrHowDUsH-50" value="" style="rounded=0;whiteSpace=wrap;html=1;container=0;" vertex="1" parent="1">
          <mxGeometry x="470" y="260" width="230" height="500" as="geometry" />
        </mxCell>
        <mxCell id="qYG14PwdEQXjrHowDUsH-52" value="0" style="rounded=0;whiteSpace=wrap;html=1;fillColor=#f8cecc;strokeColor=#b85450;container=0;" vertex="1" parent="1">
          <mxGeometry x="480" y="327.5" width="50" height="20" as="geometry" />
        </mxCell>
        <mxCell id="qYG14PwdEQXjrHowDUsH-89" style="edgeStyle=orthogonalEdgeStyle;rounded=0;orthogonalLoop=1;jettySize=auto;html=1;entryX=0;entryY=0.5;entryDx=0;entryDy=0;" edge="1" parent="1" source="qYG14PwdEQXjrHowDUsH-53" target="qYG14PwdEQXjrHowDUsH-84">
          <mxGeometry relative="1" as="geometry">
            <Array as="points">
              <mxPoint x="570" y="374" />
              <mxPoint x="540" y="374" />
              <mxPoint x="540" y="410" />
            </Array>
          </mxGeometry>
        </mxCell>
        <mxCell id="qYG14PwdEQXjrHowDUsH-91" value="复制" style="edgeLabel;html=1;align=center;verticalAlign=middle;resizable=0;points=[];" vertex="1" connectable="0" parent="qYG14PwdEQXjrHowDUsH-89">
          <mxGeometry x="0.2968" relative="1" as="geometry">
            <mxPoint as="offset" />
          </mxGeometry>
        </mxCell>
        <mxCell id="qYG14PwdEQXjrHowDUsH-53" value="1, a" style="rounded=0;whiteSpace=wrap;html=1;fillColor=#d5e8d4;strokeColor=#82b366;container=0;" vertex="1" parent="1">
          <mxGeometry x="560" y="327.5" width="50" height="20" as="geometry" />
        </mxCell>
        <mxCell id="qYG14PwdEQXjrHowDUsH-51" style="edgeStyle=orthogonalEdgeStyle;rounded=0;orthogonalLoop=1;jettySize=auto;html=1;entryX=0;entryY=0.5;entryDx=0;entryDy=0;" edge="1" parent="1" source="qYG14PwdEQXjrHowDUsH-52" target="qYG14PwdEQXjrHowDUsH-53">
          <mxGeometry relative="1" as="geometry" />
        </mxCell>
        <mxCell id="qYG14PwdEQXjrHowDUsH-88" style="edgeStyle=orthogonalEdgeStyle;rounded=0;orthogonalLoop=1;jettySize=auto;html=1;entryX=0.5;entryY=0;entryDx=0;entryDy=0;" edge="1" parent="1" source="qYG14PwdEQXjrHowDUsH-54" target="qYG14PwdEQXjrHowDUsH-81">
          <mxGeometry relative="1" as="geometry">
            <Array as="points">
              <mxPoint x="635" y="360" />
              <mxPoint x="585" y="360" />
            </Array>
          </mxGeometry>
        </mxCell>
        <mxCell id="qYG14PwdEQXjrHowDUsH-90" value="复制" style="edgeLabel;html=1;align=center;verticalAlign=middle;resizable=0;points=[];" vertex="1" connectable="0" parent="qYG14PwdEQXjrHowDUsH-88">
          <mxGeometry x="-0.2364" relative="1" as="geometry">
            <mxPoint as="offset" />
          </mxGeometry>
        </mxCell>
        <mxCell id="qYG14PwdEQXjrHowDUsH-54" value="2, b" style="rounded=0;whiteSpace=wrap;html=1;fillColor=#d5e8d4;strokeColor=#82b366;container=0;" vertex="1" parent="1">
          <mxGeometry x="610" y="327.5" width="50" height="20" as="geometry" />
        </mxCell>
        <mxCell id="qYG14PwdEQXjrHowDUsH-55" value="buckets" style="text;html=1;align=center;verticalAlign=middle;resizable=0;points=[];autosize=1;strokeColor=none;fillColor=none;container=0;" vertex="1" parent="1">
          <mxGeometry x="580" y="304.5" width="60" height="30" as="geometry" />
        </mxCell>
        <mxCell id="qYG14PwdEQXjrHowDUsH-56" value="directory" style="text;html=1;align=center;verticalAlign=middle;resizable=0;points=[];autosize=1;strokeColor=none;fillColor=none;container=0;" vertex="1" parent="1">
          <mxGeometry x="470" y="304.5" width="70" height="30" as="geometry" />
        </mxCell>
        <mxCell id="qYG14PwdEQXjrHowDUsH-57" value="hash(3) = 3, IndexOf(3) = 0" style="text;html=1;align=center;verticalAlign=middle;resizable=0;points=[];autosize=1;strokeColor=none;fillColor=none;container=0;" vertex="1" parent="1">
          <mxGeometry x="484" y="265" width="170" height="30" as="geometry" />
        </mxCell>
        <mxCell id="qYG14PwdEQXjrHowDUsH-36" value="" style="rounded=0;whiteSpace=wrap;html=1;container=0;" vertex="1" parent="1">
          <mxGeometry x="160" y="620" width="230" height="100" as="geometry" />
        </mxCell>
        <mxCell id="qYG14PwdEQXjrHowDUsH-47" style="edgeStyle=orthogonalEdgeStyle;rounded=0;orthogonalLoop=1;jettySize=auto;html=1;entryX=0;entryY=0.5;entryDx=0;entryDy=0;" edge="1" parent="1" source="qYG14PwdEQXjrHowDUsH-37" target="qYG14PwdEQXjrHowDUsH-38">
          <mxGeometry relative="1" as="geometry" />
        </mxCell>
        <mxCell id="qYG14PwdEQXjrHowDUsH-37" value="0" style="rounded=0;whiteSpace=wrap;html=1;fillColor=#f8cecc;strokeColor=#b85450;container=0;" vertex="1" parent="1">
          <mxGeometry x="170" y="671.5" width="50" height="20" as="geometry" />
        </mxCell>
        <mxCell id="qYG14PwdEQXjrHowDUsH-38" value="1, a" style="rounded=0;whiteSpace=wrap;html=1;fillColor=#d5e8d4;strokeColor=#82b366;container=0;" vertex="1" parent="1">
          <mxGeometry x="250" y="671.5" width="50" height="20" as="geometry" />
        </mxCell>
        <mxCell id="qYG14PwdEQXjrHowDUsH-40" value="2, b" style="rounded=0;whiteSpace=wrap;html=1;fillColor=#d5e8d4;strokeColor=#82b366;container=0;" vertex="1" parent="1">
          <mxGeometry x="300" y="671.5" width="50" height="20" as="geometry" />
        </mxCell>
        <mxCell id="qYG14PwdEQXjrHowDUsH-41" value="buckets" style="text;html=1;align=center;verticalAlign=middle;resizable=0;points=[];autosize=1;strokeColor=none;fillColor=none;container=0;" vertex="1" parent="1">
          <mxGeometry x="270" y="648.5" width="60" height="30" as="geometry" />
        </mxCell>
        <mxCell id="qYG14PwdEQXjrHowDUsH-42" value="directory" style="text;html=1;align=center;verticalAlign=middle;resizable=0;points=[];autosize=1;strokeColor=none;fillColor=none;container=0;" vertex="1" parent="1">
          <mxGeometry x="160" y="648.5" width="70" height="30" as="geometry" />
        </mxCell>
        <mxCell id="qYG14PwdEQXjrHowDUsH-43" value="hash(2) = 2, IndexOf(2) = 0" style="text;html=1;align=center;verticalAlign=middle;resizable=0;points=[];autosize=1;strokeColor=none;fillColor=none;container=0;" vertex="1" parent="1">
          <mxGeometry x="175" y="625" width="170" height="30" as="geometry" />
        </mxCell>
        <mxCell id="qYG14PwdEQXjrHowDUsH-48" value="&lt;b&gt;global_depth = 0&lt;/b&gt;" style="text;html=1;align=center;verticalAlign=middle;resizable=0;points=[];autosize=1;strokeColor=none;fillColor=none;container=0;" vertex="1" parent="1">
          <mxGeometry x="160" y="690" width="120" height="30" as="geometry" />
        </mxCell>
        <mxCell id="qYG14PwdEQXjrHowDUsH-62" value="depth" style="text;html=1;align=center;verticalAlign=middle;resizable=0;points=[];autosize=1;strokeColor=none;fillColor=none;" vertex="1" parent="1">
          <mxGeometry x="340" y="265" width="50" height="30" as="geometry" />
        </mxCell>
        <mxCell id="qYG14PwdEQXjrHowDUsH-63" value="0" style="rounded=0;whiteSpace=wrap;html=1;fillColor=#e1d5e7;strokeColor=#9673a6;container=0;" vertex="1" parent="1">
          <mxGeometry x="350" y="290" width="30" height="20" as="geometry" />
        </mxCell>
        <mxCell id="qYG14PwdEQXjrHowDUsH-64" value="depth" style="text;html=1;align=center;verticalAlign=middle;resizable=0;points=[];autosize=1;strokeColor=none;fillColor=none;" vertex="1" parent="1">
          <mxGeometry x="340" y="460" width="50" height="30" as="geometry" />
        </mxCell>
        <mxCell id="qYG14PwdEQXjrHowDUsH-65" value="0" style="rounded=0;whiteSpace=wrap;html=1;fillColor=#e1d5e7;strokeColor=#9673a6;container=0;" vertex="1" parent="1">
          <mxGeometry x="350" y="485" width="30" height="20" as="geometry" />
        </mxCell>
        <mxCell id="qYG14PwdEQXjrHowDUsH-66" value="depth" style="text;html=1;align=center;verticalAlign=middle;resizable=0;points=[];autosize=1;strokeColor=none;fillColor=none;" vertex="1" parent="1">
          <mxGeometry x="340" y="646.5" width="50" height="30" as="geometry" />
        </mxCell>
        <mxCell id="qYG14PwdEQXjrHowDUsH-67" value="0" style="rounded=0;whiteSpace=wrap;html=1;fillColor=#e1d5e7;strokeColor=#9673a6;container=0;" vertex="1" parent="1">
          <mxGeometry x="350" y="671.5" width="30" height="20" as="geometry" />
        </mxCell>
        <mxCell id="qYG14PwdEQXjrHowDUsH-68" value="depth" style="text;html=1;align=center;verticalAlign=middle;resizable=0;points=[];autosize=1;strokeColor=none;fillColor=none;" vertex="1" parent="1">
          <mxGeometry x="650" y="302.5" width="50" height="30" as="geometry" />
        </mxCell>
        <mxCell id="qYG14PwdEQXjrHowDUsH-69" value="0" style="rounded=0;whiteSpace=wrap;html=1;fillColor=#e1d5e7;strokeColor=#9673a6;container=0;" vertex="1" parent="1">
          <mxGeometry x="660" y="327.5" width="30" height="20" as="geometry" />
        </mxCell>
        <mxCell id="qYG14PwdEQXjrHowDUsH-78" style="edgeStyle=orthogonalEdgeStyle;rounded=0;orthogonalLoop=1;jettySize=auto;html=1;entryX=0;entryY=0.5;entryDx=0;entryDy=0;" edge="1" parent="1" source="qYG14PwdEQXjrHowDUsH-71" target="qYG14PwdEQXjrHowDUsH-53">
          <mxGeometry relative="1" as="geometry">
            <Array as="points">
              <mxPoint x="541" y="358" />
              <mxPoint x="541" y="338" />
            </Array>
          </mxGeometry>
        </mxCell>
        <mxCell id="qYG14PwdEQXjrHowDUsH-71" value="1" style="rounded=0;whiteSpace=wrap;html=1;fillColor=#f8cecc;strokeColor=#b85450;container=0;" vertex="1" parent="1">
          <mxGeometry x="480" y="347.5" width="50" height="20" as="geometry" />
        </mxCell>
        <mxCell id="qYG14PwdEQXjrHowDUsH-80" value="&lt;b&gt;1. 目录扩充为2倍&lt;/b&gt;" style="text;html=1;align=center;verticalAlign=middle;resizable=0;points=[];autosize=1;strokeColor=none;fillColor=none;" vertex="1" parent="1">
          <mxGeometry x="460" y="285" width="120" height="30" as="geometry" />
        </mxCell>
        <mxCell id="qYG14PwdEQXjrHowDUsH-81" value="2, b" style="rounded=0;whiteSpace=wrap;html=1;fillColor=#d5e8d4;strokeColor=#82b366;container=0;" vertex="1" parent="1">
          <mxGeometry x="560" y="380" width="50" height="20" as="geometry" />
        </mxCell>
        <mxCell id="qYG14PwdEQXjrHowDUsH-82" value="unused" style="rounded=0;whiteSpace=wrap;html=1;fillColor=#dae8fc;strokeColor=#6c8ebf;container=0;" vertex="1" parent="1">
          <mxGeometry x="610" y="380" width="50" height="20" as="geometry" />
        </mxCell>
        <mxCell id="qYG14PwdEQXjrHowDUsH-83" value="1" style="rounded=0;whiteSpace=wrap;html=1;fillColor=#e1d5e7;strokeColor=#9673a6;container=0;" vertex="1" parent="1">
          <mxGeometry x="660" y="380" width="30" height="20" as="geometry" />
        </mxCell>
        <mxCell id="qYG14PwdEQXjrHowDUsH-84" value="1, a" style="rounded=0;whiteSpace=wrap;html=1;fillColor=#d5e8d4;strokeColor=#82b366;container=0;" vertex="1" parent="1">
          <mxGeometry x="560" y="400" width="50" height="20" as="geometry" />
        </mxCell>
        <mxCell id="qYG14PwdEQXjrHowDUsH-85" value="unused" style="rounded=0;whiteSpace=wrap;html=1;fillColor=#dae8fc;strokeColor=#6c8ebf;container=0;" vertex="1" parent="1">
          <mxGeometry x="610" y="400" width="50" height="20" as="geometry" />
        </mxCell>
        <mxCell id="qYG14PwdEQXjrHowDUsH-86" value="1" style="rounded=0;whiteSpace=wrap;html=1;fillColor=#e1d5e7;strokeColor=#9673a6;container=0;" vertex="1" parent="1">
          <mxGeometry x="660" y="400" width="30" height="20" as="geometry" />
        </mxCell>
        <mxCell id="qYG14PwdEQXjrHowDUsH-87" value="hash(1) = 1, IndexOf(1) = 1&lt;br&gt;hash(2) = 2, IndexOf(2) = 0" style="text;html=1;align=center;verticalAlign=middle;resizable=0;points=[];autosize=1;strokeColor=none;fillColor=none;container=0;" vertex="1" parent="1">
          <mxGeometry x="490" y="418" width="170" height="40" as="geometry" />
        </mxCell>
        <mxCell id="qYG14PwdEQXjrHowDUsH-93" value="&lt;b&gt;global_depth = 1&lt;/b&gt;" style="text;html=1;align=center;verticalAlign=middle;resizable=0;points=[];autosize=1;strokeColor=none;fillColor=none;container=0;" vertex="1" parent="1">
          <mxGeometry x="474" y="455" width="120" height="30" as="geometry" />
        </mxCell>
        <mxCell id="qYG14PwdEQXjrHowDUsH-94" value="&lt;b&gt;2. 重置指针指向新的bucket&lt;/b&gt;" style="text;html=1;align=center;verticalAlign=middle;resizable=0;points=[];autosize=1;strokeColor=none;fillColor=none;" vertex="1" parent="1">
          <mxGeometry x="460" y="501" width="170" height="30" as="geometry" />
        </mxCell>
        <mxCell id="qYG14PwdEQXjrHowDUsH-95" value="2, b" style="rounded=0;whiteSpace=wrap;html=1;fillColor=#d5e8d4;strokeColor=#82b366;container=0;" vertex="1" parent="1">
          <mxGeometry x="560" y="541" width="50" height="20" as="geometry" />
        </mxCell>
        <mxCell id="qYG14PwdEQXjrHowDUsH-96" value="unused" style="rounded=0;whiteSpace=wrap;html=1;fillColor=#dae8fc;strokeColor=#6c8ebf;container=0;" vertex="1" parent="1">
          <mxGeometry x="610" y="541" width="50" height="20" as="geometry" />
        </mxCell>
        <mxCell id="qYG14PwdEQXjrHowDUsH-97" value="1" style="rounded=0;whiteSpace=wrap;html=1;fillColor=#e1d5e7;strokeColor=#9673a6;container=0;" vertex="1" parent="1">
          <mxGeometry x="660" y="541" width="30" height="20" as="geometry" />
        </mxCell>
        <mxCell id="qYG14PwdEQXjrHowDUsH-98" value="1, a" style="rounded=0;whiteSpace=wrap;html=1;fillColor=#d5e8d4;strokeColor=#82b366;container=0;" vertex="1" parent="1">
          <mxGeometry x="560" y="561" width="50" height="20" as="geometry" />
        </mxCell>
        <mxCell id="qYG14PwdEQXjrHowDUsH-99" value="unused" style="rounded=0;whiteSpace=wrap;html=1;fillColor=#dae8fc;strokeColor=#6c8ebf;container=0;" vertex="1" parent="1">
          <mxGeometry x="610" y="561" width="50" height="20" as="geometry" />
        </mxCell>
        <mxCell id="qYG14PwdEQXjrHowDUsH-100" value="1" style="rounded=0;whiteSpace=wrap;html=1;fillColor=#e1d5e7;strokeColor=#9673a6;container=0;" vertex="1" parent="1">
          <mxGeometry x="660" y="561" width="30" height="20" as="geometry" />
        </mxCell>
        <mxCell id="qYG14PwdEQXjrHowDUsH-113" style="edgeStyle=orthogonalEdgeStyle;rounded=0;orthogonalLoop=1;jettySize=auto;html=1;entryX=0;entryY=0.5;entryDx=0;entryDy=0;" edge="1" parent="1" source="qYG14PwdEQXjrHowDUsH-101" target="qYG14PwdEQXjrHowDUsH-95">
          <mxGeometry relative="1" as="geometry" />
        </mxCell>
        <mxCell id="qYG14PwdEQXjrHowDUsH-101" value="0" style="rounded=0;whiteSpace=wrap;html=1;fillColor=#f8cecc;strokeColor=#b85450;container=0;" vertex="1" parent="1">
          <mxGeometry x="484" y="541" width="50" height="20" as="geometry" />
        </mxCell>
        <mxCell id="qYG14PwdEQXjrHowDUsH-114" style="edgeStyle=orthogonalEdgeStyle;rounded=0;orthogonalLoop=1;jettySize=auto;html=1;entryX=0;entryY=0.5;entryDx=0;entryDy=0;" edge="1" parent="1" source="qYG14PwdEQXjrHowDUsH-102" target="qYG14PwdEQXjrHowDUsH-98">
          <mxGeometry relative="1" as="geometry" />
        </mxCell>
        <mxCell id="qYG14PwdEQXjrHowDUsH-102" value="1" style="rounded=0;whiteSpace=wrap;html=1;fillColor=#f8cecc;strokeColor=#b85450;container=0;" vertex="1" parent="1">
          <mxGeometry x="484" y="561" width="50" height="20" as="geometry" />
        </mxCell>
        <mxCell id="qYG14PwdEQXjrHowDUsH-110" value="depth" style="text;html=1;align=center;verticalAlign=middle;resizable=0;points=[];autosize=1;strokeColor=none;fillColor=none;" vertex="1" parent="1">
          <mxGeometry x="650" y="517" width="50" height="30" as="geometry" />
        </mxCell>
        <mxCell id="qYG14PwdEQXjrHowDUsH-111" value="buckets" style="text;html=1;align=center;verticalAlign=middle;resizable=0;points=[];autosize=1;strokeColor=none;fillColor=none;container=0;" vertex="1" parent="1">
          <mxGeometry x="580" y="517" width="60" height="30" as="geometry" />
        </mxCell>
        <mxCell id="qYG14PwdEQXjrHowDUsH-112" value="directory" style="text;html=1;align=center;verticalAlign=middle;resizable=0;points=[];autosize=1;strokeColor=none;fillColor=none;container=0;" vertex="1" parent="1">
          <mxGeometry x="470" y="517" width="70" height="30" as="geometry" />
        </mxCell>
        <mxCell id="qYG14PwdEQXjrHowDUsH-115" value="&lt;b&gt;global_depth = 1&lt;/b&gt;" style="text;html=1;align=center;verticalAlign=middle;resizable=0;points=[];autosize=1;strokeColor=none;fillColor=none;container=0;" vertex="1" parent="1">
          <mxGeometry x="470" y="576" width="120" height="30" as="geometry" />
        </mxCell>
        <mxCell id="qYG14PwdEQXjrHowDUsH-116" value="&lt;b&gt;3. 再次插入(3, &quot;c&quot;)&lt;/b&gt;" style="text;html=1;align=center;verticalAlign=middle;resizable=0;points=[];autosize=1;strokeColor=none;fillColor=none;" vertex="1" parent="1">
          <mxGeometry x="460" y="626" width="120" height="30" as="geometry" />
        </mxCell>
        <mxCell id="qYG14PwdEQXjrHowDUsH-117" value="hash(3) = 3, IndexOf(3) = 1" style="text;html=1;align=center;verticalAlign=middle;resizable=0;points=[];autosize=1;strokeColor=none;fillColor=none;container=0;" vertex="1" parent="1">
          <mxGeometry x="494" y="651" width="170" height="30" as="geometry" />
        </mxCell>
        <mxCell id="qYG14PwdEQXjrHowDUsH-118" value="2, b" style="rounded=0;whiteSpace=wrap;html=1;fillColor=#d5e8d4;strokeColor=#82b366;container=0;" vertex="1" parent="1">
          <mxGeometry x="560" y="694" width="50" height="20" as="geometry" />
        </mxCell>
        <mxCell id="qYG14PwdEQXjrHowDUsH-119" value="unused" style="rounded=0;whiteSpace=wrap;html=1;fillColor=#dae8fc;strokeColor=#6c8ebf;container=0;" vertex="1" parent="1">
          <mxGeometry x="610" y="694" width="50" height="20" as="geometry" />
        </mxCell>
        <mxCell id="qYG14PwdEQXjrHowDUsH-120" value="1" style="rounded=0;whiteSpace=wrap;html=1;fillColor=#e1d5e7;strokeColor=#9673a6;container=0;" vertex="1" parent="1">
          <mxGeometry x="660" y="694" width="30" height="20" as="geometry" />
        </mxCell>
        <mxCell id="qYG14PwdEQXjrHowDUsH-121" value="1, a" style="rounded=0;whiteSpace=wrap;html=1;fillColor=#d5e8d4;strokeColor=#82b366;container=0;" vertex="1" parent="1">
          <mxGeometry x="560" y="714" width="50" height="20" as="geometry" />
        </mxCell>
        <mxCell id="qYG14PwdEQXjrHowDUsH-122" value="3, c" style="rounded=0;whiteSpace=wrap;html=1;fillColor=#d5e8d4;strokeColor=#82b366;container=0;" vertex="1" parent="1">
          <mxGeometry x="610" y="714" width="50" height="20" as="geometry" />
        </mxCell>
        <mxCell id="qYG14PwdEQXjrHowDUsH-123" value="1" style="rounded=0;whiteSpace=wrap;html=1;fillColor=#e1d5e7;strokeColor=#9673a6;container=0;" vertex="1" parent="1">
          <mxGeometry x="660" y="714" width="30" height="20" as="geometry" />
        </mxCell>
        <mxCell id="qYG14PwdEQXjrHowDUsH-124" style="edgeStyle=orthogonalEdgeStyle;rounded=0;orthogonalLoop=1;jettySize=auto;html=1;entryX=0;entryY=0.5;entryDx=0;entryDy=0;" edge="1" source="qYG14PwdEQXjrHowDUsH-125" target="qYG14PwdEQXjrHowDUsH-118" parent="1">
          <mxGeometry relative="1" as="geometry" />
        </mxCell>
        <mxCell id="qYG14PwdEQXjrHowDUsH-125" value="0" style="rounded=0;whiteSpace=wrap;html=1;fillColor=#f8cecc;strokeColor=#b85450;container=0;" vertex="1" parent="1">
          <mxGeometry x="484" y="694" width="50" height="20" as="geometry" />
        </mxCell>
        <mxCell id="qYG14PwdEQXjrHowDUsH-126" style="edgeStyle=orthogonalEdgeStyle;rounded=0;orthogonalLoop=1;jettySize=auto;html=1;entryX=0;entryY=0.5;entryDx=0;entryDy=0;" edge="1" source="qYG14PwdEQXjrHowDUsH-127" target="qYG14PwdEQXjrHowDUsH-121" parent="1">
          <mxGeometry relative="1" as="geometry" />
        </mxCell>
        <mxCell id="qYG14PwdEQXjrHowDUsH-127" value="1" style="rounded=0;whiteSpace=wrap;html=1;fillColor=#f8cecc;strokeColor=#b85450;container=0;" vertex="1" parent="1">
          <mxGeometry x="484" y="714" width="50" height="20" as="geometry" />
        </mxCell>
        <mxCell id="qYG14PwdEQXjrHowDUsH-128" value="depth" style="text;html=1;align=center;verticalAlign=middle;resizable=0;points=[];autosize=1;strokeColor=none;fillColor=none;" vertex="1" parent="1">
          <mxGeometry x="650" y="670" width="50" height="30" as="geometry" />
        </mxCell>
        <mxCell id="qYG14PwdEQXjrHowDUsH-129" value="buckets" style="text;html=1;align=center;verticalAlign=middle;resizable=0;points=[];autosize=1;strokeColor=none;fillColor=none;container=0;" vertex="1" parent="1">
          <mxGeometry x="580" y="670" width="60" height="30" as="geometry" />
        </mxCell>
        <mxCell id="qYG14PwdEQXjrHowDUsH-130" value="directory" style="text;html=1;align=center;verticalAlign=middle;resizable=0;points=[];autosize=1;strokeColor=none;fillColor=none;container=0;" vertex="1" parent="1">
          <mxGeometry x="470" y="670" width="70" height="30" as="geometry" />
        </mxCell>
        <mxCell id="qYG14PwdEQXjrHowDUsH-131" value="&lt;b&gt;global_depth = 1&lt;/b&gt;" style="text;html=1;align=center;verticalAlign=middle;resizable=0;points=[];autosize=1;strokeColor=none;fillColor=none;container=0;" vertex="1" parent="1">
          <mxGeometry x="470" y="729" width="120" height="30" as="geometry" />
        </mxCell>
        <mxCell id="qYG14PwdEQXjrHowDUsH-162" style="edgeStyle=orthogonalEdgeStyle;rounded=0;orthogonalLoop=1;jettySize=auto;html=1;entryX=0;entryY=0.5;entryDx=0;entryDy=0;" edge="1" parent="1" source="qYG14PwdEQXjrHowDUsH-143" target="qYG14PwdEQXjrHowDUsH-161">
          <mxGeometry relative="1" as="geometry" />
        </mxCell>
        <mxCell id="qYG14PwdEQXjrHowDUsH-164" value="Insert(5, &quot;e&quot;)" style="edgeLabel;html=1;align=center;verticalAlign=middle;resizable=0;points=[];" vertex="1" connectable="0" parent="qYG14PwdEQXjrHowDUsH-162">
          <mxGeometry x="-0.0642" y="1" relative="1" as="geometry">
            <mxPoint y="1" as="offset" />
          </mxGeometry>
        </mxCell>
        <mxCell id="qYG14PwdEQXjrHowDUsH-143" value="" style="rounded=0;whiteSpace=wrap;html=1;container=0;" vertex="1" parent="1">
          <mxGeometry x="158" y="1010" width="230" height="100" as="geometry" />
        </mxCell>
        <mxCell id="qYG14PwdEQXjrHowDUsH-146" value="hash(4) = 4, IndexOf(4) = 0" style="text;html=1;align=center;verticalAlign=middle;resizable=0;points=[];autosize=1;strokeColor=none;fillColor=none;container=0;" vertex="1" parent="1">
          <mxGeometry x="180" y="1010" width="170" height="30" as="geometry" />
        </mxCell>
        <mxCell id="qYG14PwdEQXjrHowDUsH-147" value="2, b" style="rounded=0;whiteSpace=wrap;html=1;fillColor=#d5e8d4;strokeColor=#82b366;container=0;" vertex="1" parent="1">
          <mxGeometry x="248" y="1048.5" width="50" height="20" as="geometry" />
        </mxCell>
        <mxCell id="qYG14PwdEQXjrHowDUsH-148" value="4, d" style="rounded=0;whiteSpace=wrap;html=1;fillColor=#d5e8d4;strokeColor=#82b366;container=0;" vertex="1" parent="1">
          <mxGeometry x="298" y="1048.5" width="50" height="20" as="geometry" />
        </mxCell>
        <mxCell id="qYG14PwdEQXjrHowDUsH-149" value="1" style="rounded=0;whiteSpace=wrap;html=1;fillColor=#e1d5e7;strokeColor=#9673a6;container=0;" vertex="1" parent="1">
          <mxGeometry x="348" y="1048.5" width="30" height="20" as="geometry" />
        </mxCell>
        <mxCell id="qYG14PwdEQXjrHowDUsH-150" value="1, a" style="rounded=0;whiteSpace=wrap;html=1;fillColor=#d5e8d4;strokeColor=#82b366;container=0;" vertex="1" parent="1">
          <mxGeometry x="248" y="1068.5" width="50" height="20" as="geometry" />
        </mxCell>
        <mxCell id="qYG14PwdEQXjrHowDUsH-151" value="3, c" style="rounded=0;whiteSpace=wrap;html=1;fillColor=#d5e8d4;strokeColor=#82b366;container=0;" vertex="1" parent="1">
          <mxGeometry x="298" y="1068.5" width="50" height="20" as="geometry" />
        </mxCell>
        <mxCell id="qYG14PwdEQXjrHowDUsH-152" value="1" style="rounded=0;whiteSpace=wrap;html=1;fillColor=#e1d5e7;strokeColor=#9673a6;container=0;" vertex="1" parent="1">
          <mxGeometry x="348" y="1068.5" width="30" height="20" as="geometry" />
        </mxCell>
        <mxCell id="qYG14PwdEQXjrHowDUsH-153" style="edgeStyle=orthogonalEdgeStyle;rounded=0;orthogonalLoop=1;jettySize=auto;html=1;entryX=0;entryY=0.5;entryDx=0;entryDy=0;" edge="1" source="qYG14PwdEQXjrHowDUsH-154" target="qYG14PwdEQXjrHowDUsH-147" parent="1">
          <mxGeometry relative="1" as="geometry" />
        </mxCell>
        <mxCell id="qYG14PwdEQXjrHowDUsH-154" value="0" style="rounded=0;whiteSpace=wrap;html=1;fillColor=#f8cecc;strokeColor=#b85450;container=0;" vertex="1" parent="1">
          <mxGeometry x="172" y="1048.5" width="50" height="20" as="geometry" />
        </mxCell>
        <mxCell id="qYG14PwdEQXjrHowDUsH-155" style="edgeStyle=orthogonalEdgeStyle;rounded=0;orthogonalLoop=1;jettySize=auto;html=1;entryX=0;entryY=0.5;entryDx=0;entryDy=0;" edge="1" source="qYG14PwdEQXjrHowDUsH-156" target="qYG14PwdEQXjrHowDUsH-150" parent="1">
          <mxGeometry relative="1" as="geometry" />
        </mxCell>
        <mxCell id="qYG14PwdEQXjrHowDUsH-156" value="1" style="rounded=0;whiteSpace=wrap;html=1;fillColor=#f8cecc;strokeColor=#b85450;container=0;" vertex="1" parent="1">
          <mxGeometry x="172" y="1068.5" width="50" height="20" as="geometry" />
        </mxCell>
        <mxCell id="qYG14PwdEQXjrHowDUsH-157" value="depth" style="text;html=1;align=center;verticalAlign=middle;resizable=0;points=[];autosize=1;strokeColor=none;fillColor=none;" vertex="1" parent="1">
          <mxGeometry x="338" y="1024.5" width="50" height="30" as="geometry" />
        </mxCell>
        <mxCell id="qYG14PwdEQXjrHowDUsH-158" value="buckets" style="text;html=1;align=center;verticalAlign=middle;resizable=0;points=[];autosize=1;strokeColor=none;fillColor=none;container=0;" vertex="1" parent="1">
          <mxGeometry x="268" y="1024.5" width="60" height="30" as="geometry" />
        </mxCell>
        <mxCell id="qYG14PwdEQXjrHowDUsH-159" value="directory" style="text;html=1;align=center;verticalAlign=middle;resizable=0;points=[];autosize=1;strokeColor=none;fillColor=none;container=0;" vertex="1" parent="1">
          <mxGeometry x="158" y="1024.5" width="70" height="30" as="geometry" />
        </mxCell>
        <mxCell id="qYG14PwdEQXjrHowDUsH-160" value="&lt;b&gt;global_depth = 1&lt;/b&gt;" style="text;html=1;align=center;verticalAlign=middle;resizable=0;points=[];autosize=1;strokeColor=none;fillColor=none;container=0;" vertex="1" parent="1">
          <mxGeometry x="158" y="1084.5" width="120" height="30" as="geometry" />
        </mxCell>
        <mxCell id="qYG14PwdEQXjrHowDUsH-161" value="" style="rounded=0;whiteSpace=wrap;html=1;container=0;" vertex="1" parent="1">
          <mxGeometry x="471" y="810" width="230" height="500.5" as="geometry" />
        </mxCell>
        <mxCell id="qYG14PwdEQXjrHowDUsH-166" value="hash(5) = 5, IndexOf(5) = 1" style="text;html=1;align=center;verticalAlign=middle;resizable=0;points=[];autosize=1;strokeColor=none;fillColor=none;container=0;" vertex="1" parent="1">
          <mxGeometry x="492" y="813.5" width="170" height="30" as="geometry" />
        </mxCell>
        <mxCell id="qYG14PwdEQXjrHowDUsH-167" value="2, b" style="rounded=0;whiteSpace=wrap;html=1;fillColor=#d5e8d4;strokeColor=#82b366;container=0;" vertex="1" parent="1">
          <mxGeometry x="554" y="876.5" width="50" height="20" as="geometry" />
        </mxCell>
        <mxCell id="qYG14PwdEQXjrHowDUsH-168" value="4, d" style="rounded=0;whiteSpace=wrap;html=1;fillColor=#d5e8d4;strokeColor=#82b366;container=0;" vertex="1" parent="1">
          <mxGeometry x="604" y="876.5" width="50" height="20" as="geometry" />
        </mxCell>
        <mxCell id="qYG14PwdEQXjrHowDUsH-169" value="1" style="rounded=0;whiteSpace=wrap;html=1;fillColor=#e1d5e7;strokeColor=#9673a6;container=0;" vertex="1" parent="1">
          <mxGeometry x="654" y="876.5" width="30" height="20" as="geometry" />
        </mxCell>
        <mxCell id="qYG14PwdEQXjrHowDUsH-200" style="edgeStyle=orthogonalEdgeStyle;rounded=0;orthogonalLoop=1;jettySize=auto;html=1;entryX=0.5;entryY=0;entryDx=0;entryDy=0;" edge="1" parent="1" source="qYG14PwdEQXjrHowDUsH-170" target="qYG14PwdEQXjrHowDUsH-191">
          <mxGeometry relative="1" as="geometry" />
        </mxCell>
        <mxCell id="qYG14PwdEQXjrHowDUsH-203" value="复制" style="edgeLabel;html=1;align=center;verticalAlign=middle;resizable=0;points=[];" vertex="1" connectable="0" parent="qYG14PwdEQXjrHowDUsH-200">
          <mxGeometry x="-0.4" y="-1" relative="1" as="geometry">
            <mxPoint as="offset" />
          </mxGeometry>
        </mxCell>
        <mxCell id="qYG14PwdEQXjrHowDUsH-170" value="1, a" style="rounded=0;whiteSpace=wrap;html=1;fillColor=#d5e8d4;strokeColor=#82b366;container=0;" vertex="1" parent="1">
          <mxGeometry x="554" y="896.5" width="50" height="20" as="geometry" />
        </mxCell>
        <mxCell id="qYG14PwdEQXjrHowDUsH-201" style="edgeStyle=orthogonalEdgeStyle;rounded=0;orthogonalLoop=1;jettySize=auto;html=1;entryX=0;entryY=0.5;entryDx=0;entryDy=0;" edge="1" parent="1" source="qYG14PwdEQXjrHowDUsH-171" target="qYG14PwdEQXjrHowDUsH-194">
          <mxGeometry relative="1" as="geometry" />
        </mxCell>
        <mxCell id="qYG14PwdEQXjrHowDUsH-202" value="复制" style="edgeLabel;html=1;align=center;verticalAlign=middle;resizable=0;points=[];" vertex="1" connectable="0" parent="qYG14PwdEQXjrHowDUsH-201">
          <mxGeometry x="-0.473" y="2" relative="1" as="geometry">
            <mxPoint x="12" y="-27" as="offset" />
          </mxGeometry>
        </mxCell>
        <mxCell id="qYG14PwdEQXjrHowDUsH-171" value="3, c" style="rounded=0;whiteSpace=wrap;html=1;fillColor=#d5e8d4;strokeColor=#82b366;container=0;" vertex="1" parent="1">
          <mxGeometry x="604" y="896.5" width="50" height="20" as="geometry" />
        </mxCell>
        <mxCell id="qYG14PwdEQXjrHowDUsH-172" value="1" style="rounded=0;whiteSpace=wrap;html=1;fillColor=#e1d5e7;strokeColor=#9673a6;container=0;" vertex="1" parent="1">
          <mxGeometry x="654" y="896.5" width="30" height="20" as="geometry" />
        </mxCell>
        <mxCell id="qYG14PwdEQXjrHowDUsH-173" style="edgeStyle=orthogonalEdgeStyle;rounded=0;orthogonalLoop=1;jettySize=auto;html=1;entryX=0;entryY=0.5;entryDx=0;entryDy=0;" edge="1" source="qYG14PwdEQXjrHowDUsH-174" target="qYG14PwdEQXjrHowDUsH-167" parent="1">
          <mxGeometry relative="1" as="geometry" />
        </mxCell>
        <mxCell id="qYG14PwdEQXjrHowDUsH-174" value="0" style="rounded=0;whiteSpace=wrap;html=1;fillColor=#f8cecc;strokeColor=#b85450;container=0;" vertex="1" parent="1">
          <mxGeometry x="478" y="876.5" width="50" height="20" as="geometry" />
        </mxCell>
        <mxCell id="qYG14PwdEQXjrHowDUsH-175" style="edgeStyle=orthogonalEdgeStyle;rounded=0;orthogonalLoop=1;jettySize=auto;html=1;entryX=0;entryY=0.5;entryDx=0;entryDy=0;" edge="1" source="qYG14PwdEQXjrHowDUsH-176" target="qYG14PwdEQXjrHowDUsH-170" parent="1">
          <mxGeometry relative="1" as="geometry" />
        </mxCell>
        <mxCell id="qYG14PwdEQXjrHowDUsH-176" value="1" style="rounded=0;whiteSpace=wrap;html=1;fillColor=#f8cecc;strokeColor=#b85450;container=0;" vertex="1" parent="1">
          <mxGeometry x="478" y="896.5" width="50" height="20" as="geometry" />
        </mxCell>
        <mxCell id="qYG14PwdEQXjrHowDUsH-177" value="depth" style="text;html=1;align=center;verticalAlign=middle;resizable=0;points=[];autosize=1;strokeColor=none;fillColor=none;" vertex="1" parent="1">
          <mxGeometry x="647" y="852.5" width="50" height="30" as="geometry" />
        </mxCell>
        <mxCell id="qYG14PwdEQXjrHowDUsH-178" value="buckets" style="text;html=1;align=center;verticalAlign=middle;resizable=0;points=[];autosize=1;strokeColor=none;fillColor=none;container=0;" vertex="1" parent="1">
          <mxGeometry x="577" y="852.5" width="60" height="30" as="geometry" />
        </mxCell>
        <mxCell id="qYG14PwdEQXjrHowDUsH-179" value="directory" style="text;html=1;align=center;verticalAlign=middle;resizable=0;points=[];autosize=1;strokeColor=none;fillColor=none;container=0;" vertex="1" parent="1">
          <mxGeometry x="467" y="852.5" width="70" height="30" as="geometry" />
        </mxCell>
        <mxCell id="qYG14PwdEQXjrHowDUsH-180" value="&lt;b&gt;global_depth = 2&lt;/b&gt;" style="text;html=1;align=center;verticalAlign=middle;resizable=0;points=[];autosize=1;strokeColor=none;fillColor=none;container=0;" vertex="1" parent="1">
          <mxGeometry x="459" y="955.5" width="120" height="30" as="geometry" />
        </mxCell>
        <mxCell id="qYG14PwdEQXjrHowDUsH-181" value="&lt;b&gt;1. 目录扩充为2倍&lt;/b&gt;" style="text;html=1;align=center;verticalAlign=middle;resizable=0;points=[];autosize=1;strokeColor=none;fillColor=none;" vertex="1" parent="1">
          <mxGeometry x="459" y="832.5" width="120" height="30" as="geometry" />
        </mxCell>
        <mxCell id="qYG14PwdEQXjrHowDUsH-197" style="edgeStyle=orthogonalEdgeStyle;rounded=0;orthogonalLoop=1;jettySize=auto;html=1;entryX=1;entryY=0.5;entryDx=0;entryDy=0;" edge="1" parent="1" source="qYG14PwdEQXjrHowDUsH-182" target="qYG14PwdEQXjrHowDUsH-169">
          <mxGeometry relative="1" as="geometry">
            <Array as="points">
              <mxPoint x="698" y="926.5" />
              <mxPoint x="698" y="886.5" />
            </Array>
          </mxGeometry>
        </mxCell>
        <mxCell id="qYG14PwdEQXjrHowDUsH-182" value="2" style="rounded=0;whiteSpace=wrap;html=1;fillColor=#f8cecc;strokeColor=#b85450;container=0;" vertex="1" parent="1">
          <mxGeometry x="478" y="916.5" width="50" height="20" as="geometry" />
        </mxCell>
        <mxCell id="qYG14PwdEQXjrHowDUsH-198" style="edgeStyle=orthogonalEdgeStyle;rounded=0;orthogonalLoop=1;jettySize=auto;html=1;entryX=0.5;entryY=1;entryDx=0;entryDy=0;" edge="1" parent="1" source="qYG14PwdEQXjrHowDUsH-183" target="qYG14PwdEQXjrHowDUsH-172">
          <mxGeometry relative="1" as="geometry" />
        </mxCell>
        <mxCell id="qYG14PwdEQXjrHowDUsH-183" value="3" style="rounded=0;whiteSpace=wrap;html=1;fillColor=#f8cecc;strokeColor=#b85450;container=0;" vertex="1" parent="1">
          <mxGeometry x="478" y="936.5" width="50" height="20" as="geometry" />
        </mxCell>
        <mxCell id="qYG14PwdEQXjrHowDUsH-191" value="1, a" style="rounded=0;whiteSpace=wrap;html=1;fillColor=#d5e8d4;strokeColor=#82b366;container=0;" vertex="1" parent="1">
          <mxGeometry x="554" y="986.5" width="50" height="20" as="geometry" />
        </mxCell>
        <mxCell id="qYG14PwdEQXjrHowDUsH-192" value="unused" style="rounded=0;whiteSpace=wrap;html=1;fillColor=#dae8fc;strokeColor=#6c8ebf;container=0;" vertex="1" parent="1">
          <mxGeometry x="604" y="986.5" width="50" height="20" as="geometry" />
        </mxCell>
        <mxCell id="qYG14PwdEQXjrHowDUsH-193" value="2" style="rounded=0;whiteSpace=wrap;html=1;fillColor=#e1d5e7;strokeColor=#9673a6;container=0;" vertex="1" parent="1">
          <mxGeometry x="654" y="986.5" width="30" height="20" as="geometry" />
        </mxCell>
        <mxCell id="qYG14PwdEQXjrHowDUsH-194" value="3, c" style="rounded=0;whiteSpace=wrap;html=1;fillColor=#d5e8d4;strokeColor=#82b366;container=0;" vertex="1" parent="1">
          <mxGeometry x="554" y="1005.5" width="50" height="20" as="geometry" />
        </mxCell>
        <mxCell id="qYG14PwdEQXjrHowDUsH-195" value="unused" style="rounded=0;whiteSpace=wrap;html=1;fillColor=#dae8fc;strokeColor=#6c8ebf;container=0;" vertex="1" parent="1">
          <mxGeometry x="604" y="1005.5" width="50" height="20" as="geometry" />
        </mxCell>
        <mxCell id="qYG14PwdEQXjrHowDUsH-196" value="2" style="rounded=0;whiteSpace=wrap;html=1;fillColor=#e1d5e7;strokeColor=#9673a6;container=0;" vertex="1" parent="1">
          <mxGeometry x="654" y="1005.5" width="30" height="20" as="geometry" />
        </mxCell>
        <mxCell id="qYG14PwdEQXjrHowDUsH-199" value="hash(1) = 1, IndexOf(1) = 0&lt;br&gt;hash(3) = 3, IndexOf(3) = 1" style="text;html=1;align=center;verticalAlign=middle;resizable=0;points=[];autosize=1;strokeColor=none;fillColor=none;container=0;" vertex="1" parent="1">
          <mxGeometry x="506" y="1025.5" width="170" height="40" as="geometry" />
        </mxCell>
        <mxCell id="qYG14PwdEQXjrHowDUsH-204" value="&lt;b&gt;2. 重置指针指向新的bucket&lt;/b&gt;" style="text;html=1;align=center;verticalAlign=middle;resizable=0;points=[];autosize=1;strokeColor=none;fillColor=none;" vertex="1" parent="1">
          <mxGeometry x="467" y="1060" width="170" height="30" as="geometry" />
        </mxCell>
        <mxCell id="qYG14PwdEQXjrHowDUsH-205" value="2, b" style="rounded=0;whiteSpace=wrap;html=1;fillColor=#d5e8d4;strokeColor=#82b366;container=0;" vertex="1" parent="1">
          <mxGeometry x="554" y="1098.5" width="50" height="20" as="geometry" />
        </mxCell>
        <mxCell id="qYG14PwdEQXjrHowDUsH-206" value="4, d" style="rounded=0;whiteSpace=wrap;html=1;fillColor=#d5e8d4;strokeColor=#82b366;container=0;" vertex="1" parent="1">
          <mxGeometry x="604" y="1098.5" width="50" height="20" as="geometry" />
        </mxCell>
        <mxCell id="qYG14PwdEQXjrHowDUsH-207" value="1" style="rounded=0;whiteSpace=wrap;html=1;fillColor=#e1d5e7;strokeColor=#9673a6;container=0;" vertex="1" parent="1">
          <mxGeometry x="654" y="1098.5" width="30" height="20" as="geometry" />
        </mxCell>
        <mxCell id="qYG14PwdEQXjrHowDUsH-211" style="edgeStyle=orthogonalEdgeStyle;rounded=0;orthogonalLoop=1;jettySize=auto;html=1;entryX=0;entryY=0.5;entryDx=0;entryDy=0;" edge="1" source="qYG14PwdEQXjrHowDUsH-212" target="qYG14PwdEQXjrHowDUsH-205" parent="1">
          <mxGeometry relative="1" as="geometry" />
        </mxCell>
        <mxCell id="qYG14PwdEQXjrHowDUsH-212" value="0" style="rounded=0;whiteSpace=wrap;html=1;fillColor=#f8cecc;strokeColor=#b85450;container=0;" vertex="1" parent="1">
          <mxGeometry x="478" y="1098.5" width="50" height="20" as="geometry" />
        </mxCell>
        <mxCell id="qYG14PwdEQXjrHowDUsH-231" style="edgeStyle=orthogonalEdgeStyle;rounded=0;orthogonalLoop=1;jettySize=auto;html=1;entryX=0;entryY=0.5;entryDx=0;entryDy=0;" edge="1" parent="1" source="qYG14PwdEQXjrHowDUsH-214" target="qYG14PwdEQXjrHowDUsH-227">
          <mxGeometry relative="1" as="geometry" />
        </mxCell>
        <mxCell id="qYG14PwdEQXjrHowDUsH-214" value="1" style="rounded=0;whiteSpace=wrap;html=1;fillColor=#f8cecc;strokeColor=#b85450;container=0;" vertex="1" parent="1">
          <mxGeometry x="478" y="1118.5" width="50" height="20" as="geometry" />
        </mxCell>
        <mxCell id="qYG14PwdEQXjrHowDUsH-215" value="depth" style="text;html=1;align=center;verticalAlign=middle;resizable=0;points=[];autosize=1;strokeColor=none;fillColor=none;" vertex="1" parent="1">
          <mxGeometry x="647" y="1074.5" width="50" height="30" as="geometry" />
        </mxCell>
        <mxCell id="qYG14PwdEQXjrHowDUsH-216" value="buckets" style="text;html=1;align=center;verticalAlign=middle;resizable=0;points=[];autosize=1;strokeColor=none;fillColor=none;container=0;" vertex="1" parent="1">
          <mxGeometry x="577" y="1074.5" width="60" height="30" as="geometry" />
        </mxCell>
        <mxCell id="qYG14PwdEQXjrHowDUsH-217" value="directory" style="text;html=1;align=center;verticalAlign=middle;resizable=0;points=[];autosize=1;strokeColor=none;fillColor=none;container=0;" vertex="1" parent="1">
          <mxGeometry x="467" y="1074.5" width="70" height="30" as="geometry" />
        </mxCell>
        <mxCell id="qYG14PwdEQXjrHowDUsH-232" style="edgeStyle=orthogonalEdgeStyle;rounded=0;orthogonalLoop=1;jettySize=auto;html=1;entryX=0;entryY=0.5;entryDx=0;entryDy=0;" edge="1" parent="1" source="qYG14PwdEQXjrHowDUsH-219" target="qYG14PwdEQXjrHowDUsH-205">
          <mxGeometry relative="1" as="geometry">
            <Array as="points">
              <mxPoint x="534" y="1148.5" />
              <mxPoint x="534" y="1108.5" />
            </Array>
          </mxGeometry>
        </mxCell>
        <mxCell id="qYG14PwdEQXjrHowDUsH-219" value="2" style="rounded=0;whiteSpace=wrap;html=1;fillColor=#f8cecc;strokeColor=#b85450;container=0;" vertex="1" parent="1">
          <mxGeometry x="478" y="1138.5" width="50" height="20" as="geometry" />
        </mxCell>
        <mxCell id="qYG14PwdEQXjrHowDUsH-233" style="edgeStyle=orthogonalEdgeStyle;rounded=0;orthogonalLoop=1;jettySize=auto;html=1;entryX=0;entryY=0.5;entryDx=0;entryDy=0;" edge="1" parent="1" source="qYG14PwdEQXjrHowDUsH-221" target="qYG14PwdEQXjrHowDUsH-222">
          <mxGeometry relative="1" as="geometry">
            <Array as="points">
              <mxPoint x="538" y="1168.5" />
              <mxPoint x="538" y="1148.5" />
            </Array>
          </mxGeometry>
        </mxCell>
        <mxCell id="qYG14PwdEQXjrHowDUsH-221" value="3" style="rounded=0;whiteSpace=wrap;html=1;fillColor=#f8cecc;strokeColor=#b85450;container=0;" vertex="1" parent="1">
          <mxGeometry x="478" y="1158.5" width="50" height="20" as="geometry" />
        </mxCell>
        <mxCell id="qYG14PwdEQXjrHowDUsH-222" value="3, c" style="rounded=0;whiteSpace=wrap;html=1;fillColor=#d5e8d4;strokeColor=#82b366;container=0;" vertex="1" parent="1">
          <mxGeometry x="554" y="1138.5" width="50" height="20" as="geometry" />
        </mxCell>
        <mxCell id="qYG14PwdEQXjrHowDUsH-223" value="unused" style="rounded=0;whiteSpace=wrap;html=1;fillColor=#dae8fc;strokeColor=#6c8ebf;container=0;" vertex="1" parent="1">
          <mxGeometry x="604" y="1138.5" width="50" height="20" as="geometry" />
        </mxCell>
        <mxCell id="qYG14PwdEQXjrHowDUsH-224" value="2" style="rounded=0;whiteSpace=wrap;html=1;fillColor=#e1d5e7;strokeColor=#9673a6;container=0;" vertex="1" parent="1">
          <mxGeometry x="654" y="1138.5" width="30" height="20" as="geometry" />
        </mxCell>
        <mxCell id="qYG14PwdEQXjrHowDUsH-227" value="1, a" style="rounded=0;whiteSpace=wrap;html=1;fillColor=#d5e8d4;strokeColor=#82b366;container=0;" vertex="1" parent="1">
          <mxGeometry x="554" y="1118.5" width="50" height="20" as="geometry" />
        </mxCell>
        <mxCell id="qYG14PwdEQXjrHowDUsH-228" value="unused" style="rounded=0;whiteSpace=wrap;html=1;fillColor=#dae8fc;strokeColor=#6c8ebf;container=0;" vertex="1" parent="1">
          <mxGeometry x="604" y="1118.5" width="50" height="20" as="geometry" />
        </mxCell>
        <mxCell id="qYG14PwdEQXjrHowDUsH-229" value="2" style="rounded=0;whiteSpace=wrap;html=1;fillColor=#e1d5e7;strokeColor=#9673a6;container=0;" vertex="1" parent="1">
          <mxGeometry x="654" y="1118.5" width="30" height="20" as="geometry" />
        </mxCell>
        <mxCell id="qYG14PwdEQXjrHowDUsH-234" value="&lt;b&gt;3. 再次插入(5, &quot;e&quot;)&lt;/b&gt;" style="text;html=1;align=center;verticalAlign=middle;resizable=0;points=[];autosize=1;strokeColor=none;fillColor=none;" vertex="1" parent="1">
          <mxGeometry x="467" y="1173.5" width="120" height="30" as="geometry" />
        </mxCell>
        <mxCell id="qYG14PwdEQXjrHowDUsH-235" value="2, b" style="rounded=0;whiteSpace=wrap;html=1;fillColor=#d5e8d4;strokeColor=#82b366;container=0;" vertex="1" parent="1">
          <mxGeometry x="558" y="1228.5" width="50" height="20" as="geometry" />
        </mxCell>
        <mxCell id="qYG14PwdEQXjrHowDUsH-236" value="4, d" style="rounded=0;whiteSpace=wrap;html=1;fillColor=#d5e8d4;strokeColor=#82b366;container=0;" vertex="1" parent="1">
          <mxGeometry x="608" y="1228.5" width="50" height="20" as="geometry" />
        </mxCell>
        <mxCell id="qYG14PwdEQXjrHowDUsH-237" value="1" style="rounded=0;whiteSpace=wrap;html=1;fillColor=#e1d5e7;strokeColor=#9673a6;container=0;" vertex="1" parent="1">
          <mxGeometry x="658" y="1228.5" width="30" height="20" as="geometry" />
        </mxCell>
        <mxCell id="qYG14PwdEQXjrHowDUsH-238" style="edgeStyle=orthogonalEdgeStyle;rounded=0;orthogonalLoop=1;jettySize=auto;html=1;entryX=0;entryY=0.5;entryDx=0;entryDy=0;" edge="1" source="qYG14PwdEQXjrHowDUsH-239" target="qYG14PwdEQXjrHowDUsH-235" parent="1">
          <mxGeometry relative="1" as="geometry" />
        </mxCell>
        <mxCell id="qYG14PwdEQXjrHowDUsH-239" value="0" style="rounded=0;whiteSpace=wrap;html=1;fillColor=#f8cecc;strokeColor=#b85450;container=0;" vertex="1" parent="1">
          <mxGeometry x="482" y="1228.5" width="50" height="20" as="geometry" />
        </mxCell>
        <mxCell id="qYG14PwdEQXjrHowDUsH-240" style="edgeStyle=orthogonalEdgeStyle;rounded=0;orthogonalLoop=1;jettySize=auto;html=1;entryX=0;entryY=0.5;entryDx=0;entryDy=0;" edge="1" source="qYG14PwdEQXjrHowDUsH-241" target="qYG14PwdEQXjrHowDUsH-250" parent="1">
          <mxGeometry relative="1" as="geometry" />
        </mxCell>
        <mxCell id="qYG14PwdEQXjrHowDUsH-241" value="1" style="rounded=0;whiteSpace=wrap;html=1;fillColor=#f8cecc;strokeColor=#b85450;container=0;" vertex="1" parent="1">
          <mxGeometry x="482" y="1248.5" width="50" height="20" as="geometry" />
        </mxCell>
        <mxCell id="qYG14PwdEQXjrHowDUsH-242" value="depth" style="text;html=1;align=center;verticalAlign=middle;resizable=0;points=[];autosize=1;strokeColor=none;fillColor=none;" vertex="1" parent="1">
          <mxGeometry x="651" y="1204.5" width="50" height="30" as="geometry" />
        </mxCell>
        <mxCell id="qYG14PwdEQXjrHowDUsH-243" style="edgeStyle=orthogonalEdgeStyle;rounded=0;orthogonalLoop=1;jettySize=auto;html=1;entryX=0;entryY=0.5;entryDx=0;entryDy=0;" edge="1" source="qYG14PwdEQXjrHowDUsH-244" target="qYG14PwdEQXjrHowDUsH-235" parent="1">
          <mxGeometry relative="1" as="geometry">
            <Array as="points">
              <mxPoint x="538" y="1278.5" />
              <mxPoint x="538" y="1238.5" />
            </Array>
          </mxGeometry>
        </mxCell>
        <mxCell id="qYG14PwdEQXjrHowDUsH-244" value="2" style="rounded=0;whiteSpace=wrap;html=1;fillColor=#f8cecc;strokeColor=#b85450;container=0;" vertex="1" parent="1">
          <mxGeometry x="482" y="1268.5" width="50" height="20" as="geometry" />
        </mxCell>
        <mxCell id="qYG14PwdEQXjrHowDUsH-245" style="edgeStyle=orthogonalEdgeStyle;rounded=0;orthogonalLoop=1;jettySize=auto;html=1;entryX=0;entryY=0.5;entryDx=0;entryDy=0;" edge="1" source="qYG14PwdEQXjrHowDUsH-246" target="qYG14PwdEQXjrHowDUsH-247" parent="1">
          <mxGeometry relative="1" as="geometry">
            <Array as="points">
              <mxPoint x="542" y="1298.5" />
              <mxPoint x="542" y="1278.5" />
            </Array>
          </mxGeometry>
        </mxCell>
        <mxCell id="qYG14PwdEQXjrHowDUsH-246" value="3" style="rounded=0;whiteSpace=wrap;html=1;fillColor=#f8cecc;strokeColor=#b85450;container=0;" vertex="1" parent="1">
          <mxGeometry x="482" y="1288.5" width="50" height="20" as="geometry" />
        </mxCell>
        <mxCell id="qYG14PwdEQXjrHowDUsH-247" value="3, c" style="rounded=0;whiteSpace=wrap;html=1;fillColor=#d5e8d4;strokeColor=#82b366;container=0;" vertex="1" parent="1">
          <mxGeometry x="558" y="1268.5" width="50" height="20" as="geometry" />
        </mxCell>
        <mxCell id="qYG14PwdEQXjrHowDUsH-248" value="unused" style="rounded=0;whiteSpace=wrap;html=1;fillColor=#dae8fc;strokeColor=#6c8ebf;container=0;" vertex="1" parent="1">
          <mxGeometry x="608" y="1268.5" width="50" height="20" as="geometry" />
        </mxCell>
        <mxCell id="qYG14PwdEQXjrHowDUsH-249" value="2" style="rounded=0;whiteSpace=wrap;html=1;fillColor=#e1d5e7;strokeColor=#9673a6;container=0;" vertex="1" parent="1">
          <mxGeometry x="658" y="1268.5" width="30" height="20" as="geometry" />
        </mxCell>
        <mxCell id="qYG14PwdEQXjrHowDUsH-250" value="1, a" style="rounded=0;whiteSpace=wrap;html=1;fillColor=#d5e8d4;strokeColor=#82b366;container=0;" vertex="1" parent="1">
          <mxGeometry x="558" y="1248.5" width="50" height="20" as="geometry" />
        </mxCell>
        <mxCell id="qYG14PwdEQXjrHowDUsH-251" value="5, e" style="rounded=0;whiteSpace=wrap;html=1;fillColor=#d5e8d4;strokeColor=#82b366;container=0;" vertex="1" parent="1">
          <mxGeometry x="608" y="1248.5" width="50" height="20" as="geometry" />
        </mxCell>
        <mxCell id="qYG14PwdEQXjrHowDUsH-252" value="2" style="rounded=0;whiteSpace=wrap;html=1;fillColor=#e1d5e7;strokeColor=#9673a6;container=0;" vertex="1" parent="1">
          <mxGeometry x="658" y="1248.5" width="30" height="20" as="geometry" />
        </mxCell>
        <mxCell id="qYG14PwdEQXjrHowDUsH-253" value="directory" style="text;html=1;align=center;verticalAlign=middle;resizable=0;points=[];autosize=1;strokeColor=none;fillColor=none;container=0;" vertex="1" parent="1">
          <mxGeometry x="471" y="1204.5" width="70" height="30" as="geometry" />
        </mxCell>
        <mxCell id="qYG14PwdEQXjrHowDUsH-254" value="buckets" style="text;html=1;align=center;verticalAlign=middle;resizable=0;points=[];autosize=1;strokeColor=none;fillColor=none;container=0;" vertex="1" parent="1">
          <mxGeometry x="581" y="1204.5" width="60" height="30" as="geometry" />
        </mxCell>
        <mxCell id="qYG14PwdEQXjrHowDUsH-255" value="hash(5) = 5, IndexOf(5) = 1" style="text;html=1;align=center;verticalAlign=middle;resizable=0;points=[];autosize=1;strokeColor=none;fillColor=none;container=0;" vertex="1" parent="1">
          <mxGeometry x="494" y="1190" width="170" height="30" as="geometry" />
        </mxCell>
        <mxCell id="qYG14PwdEQXjrHowDUsH-256" value="&lt;b&gt;global_depth = 2&lt;/b&gt;" style="text;html=1;align=center;verticalAlign=middle;resizable=0;points=[];autosize=1;strokeColor=none;fillColor=none;container=0;" vertex="1" parent="1">
          <mxGeometry x="568" y="1153.5" width="120" height="30" as="geometry" />
        </mxCell>
        <mxCell id="qYG14PwdEQXjrHowDUsH-257" value="&lt;b&gt;global_depth = 2&lt;/b&gt;" style="text;html=1;align=center;verticalAlign=middle;resizable=0;points=[];autosize=1;strokeColor=none;fillColor=none;container=0;" vertex="1" parent="1">
          <mxGeometry x="564" y="1283.5" width="120" height="30" as="geometry" />
        </mxCell>
      </root>
    </mxGraphModel>
  </diagram>
</mxfile>
